<svg version="1.1" xmlns="http://www.w3.org/2000/svg" xmlns:xlink="http://www.w3.org/1999/xlink" width="1072" height="610"><style xmlns="http://www.w3.org/1999/xhtml"></style><defs/><g transform="translate(0,0)"><g><rect fill="#FFFFFF" stroke="none" x="0" y="0" width="1072" height="610"/></g><g transform="translate(0,0) matrix(1,0,0,1,180,110)"><g><g transform="translate(0,0) scale(8.72,4.8)"><g><path fill="#073763" stroke="none" stroke-dasharray="1.7976931348623157e+308" d="M 1.146788990825688 0 L 98.85321100917432 0 Q 100 0 100 2.0833333333333335 L 100 97.91666666666667 Q 100 100 98.85321100917432 100 L 1.146788990825688 100 Q 0 100 0 97.91666666666667 L 0 2.0833333333333335 Q 0 0 1.146788990825688 0 Z"/><g transform="scale(0.1146788990825688,0.20833333333333334)" stroke="#333333" stroke-miterlimit="10" stroke-width="2"/></g></g></g></g><g transform="translate(0,0) matrix(1,0,0,1,207.5,120)"><g><g transform="translate(0,0) scale(2.65,1.4)"><g><path fill="#168aad" stroke="none" stroke-dasharray="1.7976931348623157e+308" d="M 3.7735849056603774 0 L 96.22641509433963 0 Q 100 0 100 7.142857142857143 L 100 92.85714285714286 Q 100 100 96.22641509433963 100 L 3.7735849056603774 100 Q 0 100 0 92.85714285714286 L 0 7.142857142857143 Q 0 0 3.7735849056603774 0 Z"/><g transform="scale(0.37735849056603776,0.7142857142857143)" stroke="#333333" stroke-miterlimit="10" stroke-width="2"/></g></g></g></g><g transform="matrix(1,0,0,1,215,130)"><g><g><rect fill="rgb(0,0,0)" stroke="none" x="0" y="0" width="256" height="14" fill-opacity="0"/></g></g><g><g><rect fill="rgb(0,0,0)" stroke="none" x="0" y="0" width="256" height="14" fill-opacity="0"/></g></g><g><g><rect fill="rgb(0,0,0)" stroke="none" x="64.09375" y="0" width="128" height="14" fill-opacity="0"/></g></g><g><g><rect fill="rgb(0,0,0)" stroke="none" x="64.09375" y="0" width="128" height="14" fill-opacity="0"/></g><text fill="rgb(255, 255, 255)" stroke="none" font-family="Arial" font-size="12px" font-style="normal" font-weight="normal" text-decoration="" line-height="14px" x="64.09375" y="11">PRODUCT</text><text fill="rgb(255, 255, 255)" stroke="none" font-family="Arial" font-size="12px" font-style="normal" font-weight="normal" text-decoration="" line-height="14px" x="126.53125" y="11">LIFECYCLE</text></g></g><g transform="translate(0,0) matrix(1,0,0,1,227.5,158)"><g><g transform="translate(0,0) scale(1,0.75)"><g><path fill="#6fa8dc" stroke="none" stroke-dasharray="1.7976931348623157e+308" d="M 10 0 L 90 0 Q 100 0 100 13.333333333333334 L 100 86.66666666666667 Q 100 100 90 100 L 10 100 Q 0 100 0 86.66666666666667 L 0 13.333333333333334 Q 0 0 10 0 Z"/><g transform="scale(1,1.3333333333333333)" stroke="#333333" stroke-miterlimit="10" stroke-width="2"/></g></g></g></g><g transform="matrix(1,0,0,1,238,182)"><g><g><rect fill="rgb(0,0,0)" stroke="none" x="0" y="0" width="80" height="28" fill-opacity="0"/></g></g><g><g><rect fill="rgb(0,0,0)" stroke="none" x="0" y="0" width="80" height="28" fill-opacity="0"/></g></g><g><g><rect fill="rgb(0,0,0)" stroke="none" x="4.96875" y="0" width="70" height="28" fill-opacity="0"/></g></g><g><g><rect fill="rgb(0,0,0)" stroke="none" x="4.96875" y="0" width="70" height="28" fill-opacity="0"/></g><text fill="rgb(255, 255, 255)" stroke="none" font-family="Arial" font-size="12px" font-style="normal" font-weight="normal" text-decoration="" line-height="14px" x="26.765625" y="11">Offer</text><text fill="rgb(255, 255, 255)" stroke="none" font-family="Arial" font-size="12px" font-style="normal" font-weight="normal" text-decoration="" line-height="14px" x="4.96875" y="25">Management</text></g></g><g transform="translate(0,0) matrix(1,0,0,1,342.5,158)"><g><g transform="translate(0,0) scale(1,0.75)"><g><path fill="#6fa8dc" stroke="none" stroke-dasharray="1.7976931348623157e+308" d="M 10 0 L 90 0 Q 100 0 100 13.333333333333334 L 100 86.66666666666667 Q 100 100 90 100 L 10 100 Q 0 100 0 86.66666666666667 L 0 13.333333333333334 Q 0 0 10 0 Z"/><g transform="scale(1,1.3333333333333333)" stroke="#333333" stroke-miterlimit="10" stroke-width="2"/></g></g></g></g><g transform="matrix(1,0,0,1,353,182)"><g><g><rect fill="rgb(0,0,0)" stroke="none" x="0" y="0" width="80" height="28" fill-opacity="0"/></g></g><g><g><rect fill="rgb(0,0,0)" stroke="none" x="0" y="0" width="80" height="28" fill-opacity="0"/></g></g><g><g><rect fill="rgb(0,0,0)" stroke="none" x="4.96875" y="0" width="70" height="28" fill-opacity="0"/></g></g><g><g><rect fill="rgb(0,0,0)" stroke="none" x="4.96875" y="0" width="70" height="28" fill-opacity="0"/></g><text fill="rgb(255, 255, 255)" stroke="none" font-family="Arial" font-size="12px" font-style="normal" font-weight="normal" text-decoration="" line-height="14px" x="19.3125" y="11">Product</text><text fill="rgb(255, 255, 255)" stroke="none" font-family="Arial" font-size="12px" font-style="normal" font-weight="normal" text-decoration="" line-height="14px" x="4.96875" y="25">Management</text></g></g><g transform="translate(0,0) matrix(1,0,0,1,497.5,120)"><g><g transform="translate(0,0) scale(2.65,1.4)"><g><path fill="#168aad" stroke="none" stroke-dasharray="1.7976931348623157e+308" d="M 3.7735849056603774 0 L 96.22641509433963 0 Q 100 0 100 7.142857142857143 L 100 92.85714285714286 Q 100 100 96.22641509433963 100 L 3.7735849056603774 100 Q 0 100 0 92.85714285714286 L 0 7.142857142857143 Q 0 0 3.7735849056603774 0 Z"/><g transform="scale(0.37735849056603776,0.7142857142857143)" stroke="#333333" stroke-miterlimit="10" stroke-width="2"/></g></g></g></g><g transform="matrix(1,0,0,1,505,130)"><g><g><rect fill="rgb(0,0,0)" stroke="none" x="0" y="0" width="256" height="14" fill-opacity="0"/></g></g><g><g><rect fill="rgb(0,0,0)" stroke="none" x="0" y="0" width="256" height="14" fill-opacity="0"/></g></g><g><g><rect fill="rgb(0,0,0)" stroke="none" x="93.765625" y="0" width="68" height="14" fill-opacity="0"/></g></g><g><g><rect fill="rgb(0,0,0)" stroke="none" x="93.765625" y="0" width="68" height="14" fill-opacity="0"/></g><text fill="rgb(0, 0, 0)" stroke="none" font-family="Arial" font-size="12px" font-style="normal" font-weight="normal" text-decoration="" line-height="14px" x="93.765625" y="11">CUSTOMER</text></g></g><g transform="translate(0,0) matrix(1,0,0,1,517.5,158)"><g><g transform="translate(0,0) scale(1,0.75)"><g><path fill="#3d85c6" stroke="none" stroke-dasharray="1.7976931348623157e+308" d="M 10 0 L 90 0 Q 100 0 100 13.333333333333334 L 100 86.66666666666667 Q 100 100 90 100 L 10 100 Q 0 100 0 86.66666666666667 L 0 13.333333333333334 Q 0 0 10 0 Z"/><g transform="scale(1,1.3333333333333333)" stroke="#333333" stroke-miterlimit="10" stroke-width="2"/></g></g></g></g><g transform="matrix(1,0,0,1,528,182)"><g><g><rect fill="rgb(0,0,0)" stroke="none" x="0" y="0" width="80" height="28" fill-opacity="0"/></g></g><g><g><rect fill="rgb(0,0,0)" stroke="none" x="0" y="0" width="80" height="28" fill-opacity="0"/></g></g><g><g><rect fill="rgb(0,0,0)" stroke="none" x="4.96875" y="0" width="70" height="28" fill-opacity="0"/></g></g><g><g><rect fill="rgb(0,0,0)" stroke="none" x="4.96875" y="0" width="70" height="28" fill-opacity="0"/></g><text fill="rgb(255, 255, 255)" stroke="none" font-family="Arial" font-size="12px" font-style="normal" font-weight="normal" text-decoration="" line-height="14px" x="13.984375" y="11">Customer</text><text fill="rgb(255, 255, 255)" stroke="none" font-family="Arial" font-size="12px" font-style="normal" font-weight="normal" text-decoration="" line-height="14px" x="4.96875" y="25">Management</text></g></g><g transform="translate(0,0) matrix(1,0,0,1,632.5,158)"><g><g transform="translate(0,0) scale(1,0.75)"><g><path fill="#3d85c6" stroke="none" stroke-dasharray="1.7976931348623157e+308" d="M 10 0 L 90 0 Q 100 0 100 13.333333333333334 L 100 86.66666666666667 Q 100 100 90 100 L 10 100 Q 0 100 0 86.66666666666667 L 0 13.333333333333334 Q 0 0 10 0 Z"/><g transform="scale(1,1.3333333333333333)" stroke="#333333" stroke-miterlimit="10" stroke-width="2"/></g></g></g></g><g transform="matrix(1,0,0,1,643,182)"><g><g><rect fill="rgb(0,0,0)" stroke="none" x="0" y="0" width="80" height="28" fill-opacity="0"/></g></g><g><g><rect fill="rgb(0,0,0)" stroke="none" x="0" y="0" width="80" height="28" fill-opacity="0"/></g></g><g><g><rect fill="rgb(0,0,0)" stroke="none" x="6.640625" y="0" width="67" height="28" fill-opacity="0"/></g></g><g><g><rect fill="rgb(0,0,0)" stroke="none" x="6.640625" y="0" width="67" height="28" fill-opacity="0"/></g><text fill="rgb(255, 255, 255)" stroke="none" font-family="Arial" font-size="12px" font-style="normal" font-weight="normal" text-decoration="" line-height="14px" x="13.984375" y="11">Customer</text><text fill="rgb(255, 255, 255)" stroke="none" font-family="Arial" font-size="12px" font-style="normal" font-weight="normal" text-decoration="" line-height="14px" x="6.640625" y="25">Account</text><text fill="rgb(255, 255, 255)" stroke="none" font-family="Arial" font-size="12px" font-style="normal" font-weight="normal" text-decoration="" line-height="14px" x="53.328125" y="25">Mgt</text></g></g><g transform="translate(0,0) matrix(1,0,0,1,207.5,280)"><g><g transform="translate(0,0) scale(2.65,1.4)"><g><path fill="#168aad" stroke="none" stroke-dasharray="1.7976931348623157e+308" d="M 3.7735849056603774 0 L 96.22641509433963 0 Q 100 0 100 7.142857142857143 L 100 92.85714285714286 Q 100 100 96.22641509433963 100 L 3.7735849056603774 100 Q 0 100 0 92.85714285714286 L 0 7.142857142857143 Q 0 0 3.7735849056603774 0 Z"/><g transform="scale(0.37735849056603776,0.7142857142857143)" stroke="#333333" stroke-miterlimit="10" stroke-width="2"/></g></g></g></g><g transform="matrix(1,0,0,1,215,290)"><g><g><rect fill="rgb(0,0,0)" stroke="none" x="0" y="0" width="256" height="14" fill-opacity="0"/></g></g><g><g><rect fill="rgb(0,0,0)" stroke="none" x="0" y="0" width="256" height="14" fill-opacity="0"/></g></g><g><g><rect fill="rgb(0,0,0)" stroke="none" x="98.421875" y="0" width="60" height="14" fill-opacity="0"/></g></g><g><g><rect fill="rgb(0,0,0)" stroke="none" x="98.421875" y="0" width="60" height="14" fill-opacity="0"/></g><text fill="rgb(0, 0, 0)" stroke="none" font-family="Arial" font-size="12px" font-style="normal" font-weight="normal" text-decoration="" line-height="14px" x="98.421875" y="11">DELIVERY</text></g></g><g transform="translate(0,0) matrix(1,0,0,1,227.5,318)"><g><g transform="translate(0,0) scale(1,0.75)"><g><path fill="#3d85c6" stroke="none" stroke-dasharray="1.7976931348623157e+308" d="M 10 0 L 90 0 Q 100 0 100 13.333333333333334 L 100 86.66666666666667 Q 100 100 90 100 L 10 100 Q 0 100 0 86.66666666666667 L 0 13.333333333333334 Q 0 0 10 0 Z"/><g transform="scale(1,1.3333333333333333)" stroke="#333333" stroke-miterlimit="10" stroke-width="2"/></g></g></g></g><g transform="matrix(1,0,0,1,238,342)"><g><g><rect fill="rgb(0,0,0)" stroke="none" x="0" y="0" width="80" height="28" fill-opacity="0"/></g></g><g><g><rect fill="rgb(0,0,0)" stroke="none" x="0" y="0" width="80" height="28" fill-opacity="0"/></g></g><g><g><rect fill="rgb(0,0,0)" stroke="none" x="1.3125" y="0" width="78" height="28" fill-opacity="0"/></g></g><g><g><rect fill="rgb(0,0,0)" stroke="none" x="1.3125" y="0" width="78" height="28" fill-opacity="0"/></g><text fill="rgb(255, 255, 255)" stroke="none" font-family="Arial" font-size="12px" font-style="normal" font-weight="normal" text-decoration="" line-height="14px" x="1.3125" y="11">Delivery</text><text fill="rgb(255, 255, 255)" stroke="none" font-family="Arial" font-size="12px" font-style="normal" font-weight="normal" text-decoration="" line-height="14px" x="47.984375" y="11">Order</text><text fill="rgb(255, 255, 255)" stroke="none" font-family="Arial" font-size="12px" font-style="normal" font-weight="normal" text-decoration="" line-height="14px" x="4.96875" y="25">Management</text></g></g><g transform="translate(0,0) matrix(1,0,0,1,342.5,318)"><g><g transform="translate(0,0) scale(1,0.75)"><g><path fill="#3d85c6" stroke="none" stroke-dasharray="1.7976931348623157e+308" d="M 10 0 L 90 0 Q 100 0 100 13.333333333333334 L 100 86.66666666666667 Q 100 100 90 100 L 10 100 Q 0 100 0 86.66666666666667 L 0 13.333333333333334 Q 0 0 10 0 Z"/><g transform="scale(1,1.3333333333333333)" stroke="#333333" stroke-miterlimit="10" stroke-width="2"/></g></g></g></g><g transform="matrix(1,0,0,1,353,342)"><g><g><rect fill="rgb(0,0,0)" stroke="none" x="0" y="0" width="80" height="28" fill-opacity="0"/></g></g><g><g><rect fill="rgb(0,0,0)" stroke="none" x="0" y="0" width="80" height="28" fill-opacity="0"/></g></g><g><g><rect fill="rgb(0,0,0)" stroke="none" x="4.96875" y="0" width="70" height="28" fill-opacity="0"/></g></g><g><g><rect fill="rgb(0,0,0)" stroke="none" x="4.96875" y="0" width="70" height="28" fill-opacity="0"/></g><text fill="rgb(255, 255, 255)" stroke="none" font-family="Arial" font-size="12px" font-style="normal" font-weight="normal" text-decoration="" line-height="14px" x="20.3125" y="11">Courier</text><text fill="rgb(255, 255, 255)" stroke="none" font-family="Arial" font-size="12px" font-style="normal" font-weight="normal" text-decoration="" line-height="14px" x="4.96875" y="25">Management</text></g></g><g transform="translate(0,0) matrix(1,0,0,1,502.5,280)"><g><g transform="translate(0,0) scale(2.65,1.4)"><g><path fill="#168aad" stroke="none" stroke-dasharray="1.7976931348623157e+308" d="M 3.7735849056603774 0 L 96.22641509433963 0 Q 100 0 100 7.142857142857143 L 100 92.85714285714286 Q 100 100 96.22641509433963 100 L 3.7735849056603774 100 Q 0 100 0 92.85714285714286 L 0 7.142857142857143 Q 0 0 3.7735849056603774 0 Z"/><g transform="scale(0.37735849056603776,0.7142857142857143)" stroke="#333333" stroke-miterlimit="10" stroke-width="2"/></g></g></g></g><g transform="matrix(1,0,0,1,510,290)"><g><g><rect fill="rgb(0,0,0)" stroke="none" x="0" y="0" width="256" height="14" fill-opacity="0"/></g></g><g><g><rect fill="rgb(0,0,0)" stroke="none" x="0" y="0" width="256" height="14" fill-opacity="0"/></g></g><g><g><rect fill="rgb(0,0,0)" stroke="none" x="106.328125" y="0" width="44" height="14" fill-opacity="0"/></g></g><g><g><rect fill="rgb(0,0,0)" stroke="none" x="106.328125" y="0" width="44" height="14" fill-opacity="0"/></g><text fill="rgb(0, 0, 0)" stroke="none" font-family="Arial" font-size="12px" font-style="normal" font-weight="normal" text-decoration="" line-height="14px" x="106.328125" y="11">ORDER</text></g></g><g transform="translate(0,0) matrix(1,0,0,1,522.5,318)"><g><g transform="translate(0,0) scale(1,0.75)"><g><path fill="#3d85c6" stroke="none" stroke-dasharray="1.7976931348623157e+308" d="M 10 0 L 90 0 Q 100 0 100 13.333333333333334 L 100 86.66666666666667 Q 100 100 90 100 L 10 100 Q 0 100 0 86.66666666666667 L 0 13.333333333333334 Q 0 0 10 0 Z"/><g transform="scale(1,1.3333333333333333)" stroke="#333333" stroke-miterlimit="10" stroke-width="2"/></g></g></g></g><g transform="matrix(1,0,0,1,533,335)"><g><g><rect fill="rgb(0,0,0)" stroke="none" x="0" y="0" width="80" height="42" fill-opacity="0"/></g></g><g><g><rect fill="rgb(0,0,0)" stroke="none" x="0" y="0" width="80" height="42" fill-opacity="0"/></g></g><g><g><rect fill="rgb(0,0,0)" stroke="none" x="4.96875" y="0" width="70" height="42" fill-opacity="0"/></g></g><g><g><rect fill="rgb(0,0,0)" stroke="none" x="4.96875" y="0" width="70" height="42" fill-opacity="0"/></g><text fill="rgb(255, 255, 255)" stroke="none" font-family="Arial" font-size="12px" font-style="normal" font-weight="normal" text-decoration="" line-height="14px" x="13.984375" y="11">Customer</text><text fill="rgb(255, 255, 255)" stroke="none" font-family="Arial" font-size="12px" font-style="normal" font-weight="normal" text-decoration="" line-height="14px" x="24.65625" y="25">Order</text><text fill="rgb(255, 255, 255)" stroke="none" font-family="Arial" font-size="12px" font-style="normal" font-weight="normal" text-decoration="" line-height="14px" x="4.96875" y="39">Management</text></g></g><g transform="translate(0,0) matrix(1,0,0,1,637.5,318)"><g><g transform="translate(0,0) scale(1,0.75)"><g><path fill="#3d85c6" stroke="none" stroke-dasharray="1.7976931348623157e+308" d="M 10 0 L 90 0 Q 100 0 100 13.333333333333334 L 100 86.66666666666667 Q 100 100 90 100 L 10 100 Q 0 100 0 86.66666666666667 L 0 13.333333333333334 Q 0 0 10 0 Z"/><g transform="scale(1,1.3333333333333333)" stroke="#333333" stroke-miterlimit="10" stroke-width="2"/></g></g></g></g><g transform="matrix(1,0,0,1,648,335)"><g><g><rect fill="rgb(0,0,0)" stroke="none" x="0" y="0" width="80" height="42" fill-opacity="0"/></g></g><g><g><rect fill="rgb(0,0,0)" stroke="none" x="0" y="0" width="80" height="42" fill-opacity="0"/></g></g><g><g><rect fill="rgb(0,0,0)" stroke="none" x="3.65625" y="0" width="73" height="42" fill-opacity="0"/></g></g><g><g><rect fill="rgb(0,0,0)" stroke="none" x="3.65625" y="0" width="73" height="42" fill-opacity="0"/></g><text fill="rgb(255, 255, 255)" stroke="none" font-family="Arial" font-size="12px" font-style="normal" font-weight="normal" text-decoration="" line-height="14px" x="13.984375" y="11">Customer</text><text fill="rgb(255, 255, 255)" stroke="none" font-family="Arial" font-size="12px" font-style="normal" font-weight="normal" text-decoration="" line-height="14px" x="3.65625" y="25">Order</text><text fill="rgb(255, 255, 255)" stroke="none" font-family="Arial" font-size="12px" font-style="normal" font-weight="normal" text-decoration="" line-height="14px" x="37.65625" y="25">Follow</text><text fill="rgb(255, 255, 255)" stroke="none" font-family="Arial" font-size="12px" font-style="normal" font-weight="normal" text-decoration="" line-height="14px" x="72.328125" y="25">-</text><text fill="rgb(255, 255, 255)" stroke="none" font-family="Arial" font-size="12px" font-style="normal" font-weight="normal" text-decoration="" line-height="14px" x="33.3125" y="39">up</text></g></g><g transform="translate(0,0) matrix(1,0,0,1,207.5,430)"><g><g transform="translate(0,0) scale(2.65,1.4)"><g><path fill="#168aad" stroke="none" stroke-dasharray="1.7976931348623157e+308" d="M 3.7735849056603774 0 L 96.22641509433963 0 Q 100 0 100 7.142857142857143 L 100 92.85714285714286 Q 100 100 96.22641509433963 100 L 3.7735849056603774 100 Q 0 100 0 92.85714285714286 L 0 7.142857142857143 Q 0 0 3.7735849056603774 0 Z"/><g transform="scale(0.37735849056603776,0.7142857142857143)" stroke="#333333" stroke-miterlimit="10" stroke-width="2"/></g></g></g></g><g transform="matrix(1,0,0,1,215,440)"><g><g><rect fill="rgb(0,0,0)" stroke="none" x="0" y="0" width="256" height="14" fill-opacity="0"/></g></g><g><g><rect fill="rgb(0,0,0)" stroke="none" x="0" y="0" width="256" height="14" fill-opacity="0"/></g></g><g><g><rect fill="rgb(0,0,0)" stroke="none" x="103.328125" y="0" width="50" height="14" fill-opacity="0"/></g></g><g><g><rect fill="rgb(0,0,0)" stroke="none" x="103.328125" y="0" width="50" height="14" fill-opacity="0"/></g><text fill="rgb(255, 255, 255)" stroke="none" font-family="Arial" font-size="12px" font-style="normal" font-weight="normal" text-decoration="" line-height="14px" x="103.328125" y="11">INVOICE</text></g></g><g transform="translate(0,0) matrix(1,0,0,1,227.5,468)"><g><g transform="translate(0,0) scale(1,0.75)"><g><path fill="#3d85c6" stroke="none" stroke-dasharray="1.7976931348623157e+308" d="M 10 0 L 90 0 Q 100 0 100 13.333333333333334 L 100 86.66666666666667 Q 100 100 90 100 L 10 100 Q 0 100 0 86.66666666666667 L 0 13.333333333333334 Q 0 0 10 0 Z"/><g transform="scale(1,1.3333333333333333)" stroke="#333333" stroke-miterlimit="10" stroke-width="2"/></g></g></g></g><g transform="matrix(1,0,0,1,238,492)"><g><g><rect fill="rgb(0,0,0)" stroke="none" x="0" y="0" width="80" height="28" fill-opacity="0"/></g></g><g><g><rect fill="rgb(0,0,0)" stroke="none" x="0" y="0" width="80" height="28" fill-opacity="0"/></g></g><g><g><rect fill="rgb(0,0,0)" stroke="none" x="4.96875" y="0" width="70" height="28" fill-opacity="0"/></g></g><g><g><rect fill="rgb(0,0,0)" stroke="none" x="4.96875" y="0" width="70" height="28" fill-opacity="0"/></g><text fill="rgb(255, 255, 255)" stroke="none" font-family="Arial" font-size="12px" font-style="normal" font-weight="normal" text-decoration="" line-height="14px" x="20.984375" y="11">Invoice</text><text fill="rgb(255, 255, 255)" stroke="none" font-family="Arial" font-size="12px" font-style="normal" font-weight="normal" text-decoration="" line-height="14px" x="4.96875" y="25">Management</text></g></g><g transform="translate(0,0) matrix(1,0,0,1,342.5,468)"><g><g transform="translate(0,0) scale(1,0.75)"><g><path fill="#3d85c6" stroke="none" stroke-dasharray="1.7976931348623157e+308" d="M 10 0 L 90 0 Q 100 0 100 13.333333333333334 L 100 86.66666666666667 Q 100 100 90 100 L 10 100 Q 0 100 0 86.66666666666667 L 0 13.333333333333334 Q 0 0 10 0 Z"/><g transform="scale(1,1.3333333333333333)" stroke="#333333" stroke-miterlimit="10" stroke-width="2"/></g></g></g></g><g transform="matrix(1,0,0,1,353,499)"><g><g><rect fill="rgb(0,0,0)" stroke="none" x="0" y="0" width="80" height="14" fill-opacity="0"/></g></g><g><g><rect fill="rgb(0,0,0)" stroke="none" x="0" y="0" width="80" height="14" fill-opacity="0"/></g></g><g><g><rect fill="rgb(0,0,0)" stroke="none" x="10.3125" y="0" width="60" height="14" fill-opacity="0"/></g></g><g><g><rect fill="rgb(0,0,0)" stroke="none" x="10.3125" y="0" width="60" height="14" fill-opacity="0"/></g><text fill="rgb(255, 255, 255)" stroke="none" font-family="Arial" font-size="12px" font-style="normal" font-weight="normal" text-decoration="" line-height="14px" x="10.3125" y="11">Accounting</text></g></g><g transform="translate(0,0) matrix(1,0,0,1,502.5,430)"><g><g transform="translate(0,0) scale(3.9000000000000004,1.4)"><g><path fill="#168aad" stroke="none" stroke-dasharray="1.7976931348623157e+308" d="M 2.564102564102564 0 L 97.43589743589743 0 Q 100 0 100 7.142857142857143 L 100 92.85714285714286 Q 100 100 97.43589743589743 100 L 2.564102564102564 100 Q 0 100 0 92.85714285714286 L 0 7.142857142857143 Q 0 0 2.564102564102564 0 Z"/><g transform="scale(0.2564102564102564,0.7142857142857143)" stroke="#333333" stroke-miterlimit="10" stroke-width="2"/></g></g></g></g><g transform="matrix(1,0,0,1,510,440)"><g><g><rect fill="rgb(0,0,0)" stroke="none" x="0" y="0" width="256" height="14" fill-opacity="0"/></g></g><g><g><rect fill="rgb(0,0,0)" stroke="none" x="0" y="0" width="256" height="14" fill-opacity="0"/></g></g><g><g><rect fill="rgb(0,0,0)" stroke="none" x="56.296875" y="0" width="144" height="14" fill-opacity="0"/></g></g><g><g><rect fill="rgb(0,0,0)" stroke="none" x="56.296875" y="0" width="144" height="14" fill-opacity="0"/></g><text fill="rgb(0, 0, 0)" stroke="none" font-family="Arial" font-size="12px" font-style="normal" font-weight="normal" text-decoration="" line-height="14px" x="56.296875" y="11">INVENTORY</text><text fill="rgb(0, 0, 0)" stroke="none" font-family="Arial" font-size="12px" font-style="normal" font-weight="normal" text-decoration="" line-height="14px" x="125.640625" y="11"> &amp;</text><text fill="rgb(0, 0, 0)" stroke="none" font-family="Arial" font-size="12px" font-style="normal" font-weight="normal" text-decoration="" line-height="14px" x="140.3125" y="11">SUPPLIER</text></g></g><g transform="translate(0,0) matrix(1,0,0,1,522.5,468)"><g><g transform="translate(0,0) scale(1,0.75)"><g><path fill="#3d85c6" stroke="none" stroke-dasharray="1.7976931348623157e+308" d="M 10 0 L 90 0 Q 100 0 100 13.333333333333334 L 100 86.66666666666667 Q 100 100 90 100 L 10 100 Q 0 100 0 86.66666666666667 L 0 13.333333333333334 Q 0 0 10 0 Z"/><g transform="scale(1,1.3333333333333333)" stroke="#333333" stroke-miterlimit="10" stroke-width="2"/></g></g></g></g><g transform="matrix(1,0,0,1,533,492)"><g><g><rect fill="rgb(0,0,0)" stroke="none" x="0" y="0" width="80" height="28" fill-opacity="0"/></g></g><g><g><rect fill="rgb(0,0,0)" stroke="none" x="0" y="0" width="80" height="28" fill-opacity="0"/></g></g><g><g><rect fill="rgb(0,0,0)" stroke="none" x="4.96875" y="0" width="70" height="28" fill-opacity="0"/></g></g><g><g><rect fill="rgb(0,0,0)" stroke="none" x="4.96875" y="0" width="70" height="28" fill-opacity="0"/></g><text fill="rgb(255, 255, 255)" stroke="none" font-family="Arial" font-size="12px" font-style="normal" font-weight="normal" text-decoration="" line-height="14px" x="17.984375" y="11">Supplier</text><text fill="rgb(255, 255, 255)" stroke="none" font-family="Arial" font-size="12px" font-style="normal" font-weight="normal" text-decoration="" line-height="14px" x="4.96875" y="25">Management</text></g></g><g transform="translate(0,0) matrix(1,0,0,1,637.5,468)"><g><g transform="translate(0,0) scale(1,0.75)"><g><path fill="#3d85c6" stroke="none" stroke-dasharray="1.7976931348623157e+308" d="M 10 0 L 90 0 Q 100 0 100 13.333333333333334 L 100 86.66666666666667 Q 100 100 90 100 L 10 100 Q 0 100 0 86.66666666666667 L 0 13.333333333333334 Q 0 0 10 0 Z"/><g transform="scale(1,1.3333333333333333)" stroke="#333333" stroke-miterlimit="10" stroke-width="2"/></g></g></g></g><g transform="matrix(1,0,0,1,648,492)"><g><g><rect fill="rgb(0,0,0)" stroke="none" x="0" y="0" width="80" height="28" fill-opacity="0"/></g></g><g><g><rect fill="rgb(0,0,0)" stroke="none" x="0" y="0" width="80" height="28" fill-opacity="0"/></g></g><g><g><rect fill="rgb(0,0,0)" stroke="none" x="2.640625" y="0" width="75" height="28" fill-opacity="0"/></g></g><g><g><rect fill="rgb(0,0,0)" stroke="none" x="2.640625" y="0" width="75" height="28" fill-opacity="0"/></g><text fill="rgb(255, 255, 255)" stroke="none" font-family="Arial" font-size="12px" font-style="normal" font-weight="normal" text-decoration="" line-height="14px" x="17.984375" y="11">Supplier</text><text fill="rgb(255, 255, 255)" stroke="none" font-family="Arial" font-size="12px" font-style="normal" font-weight="normal" text-decoration="" line-height="14px" x="2.640625" y="25">Reconciliation</text></g></g><g transform="translate(0,0) matrix(1,0,0,1,754,468)"><g><g transform="translate(0,0) scale(1,0.75)"><g><path fill="#3d85c6" stroke="none" stroke-dasharray="1.7976931348623157e+308" d="M 10 0 L 90 0 Q 100 0 100 13.333333333333334 L 100 86.66666666666667 Q 100 100 90 100 L 10 100 Q 0 100 0 86.66666666666667 L 0 13.333333333333334 Q 0 0 10 0 Z"/><g transform="scale(1,1.3333333333333333)" stroke="#333333" stroke-miterlimit="10" stroke-width="2"/></g></g></g></g><g transform="matrix(1,0,0,1,764,492)"><g><g><rect fill="rgb(0,0,0)" stroke="none" x="0" y="0" width="80" height="28" fill-opacity="0"/></g></g><g><g><rect fill="rgb(0,0,0)" stroke="none" x="0" y="0" width="80" height="28" fill-opacity="0"/></g></g><g><g><rect fill="rgb(0,0,0)" stroke="none" x="4.96875" y="0" width="70" height="28" fill-opacity="0"/></g></g><g><g><rect fill="rgb(0,0,0)" stroke="none" x="4.96875" y="0" width="70" height="28" fill-opacity="0"/></g><text fill="rgb(255, 255, 255)" stroke="none" font-family="Arial" font-size="12px" font-style="normal" font-weight="normal" text-decoration="" line-height="14px" x="15.3125" y="11">Inventory</text><text fill="rgb(255, 255, 255)" stroke="none" font-family="Arial" font-size="12px" font-style="normal" font-weight="normal" text-decoration="" line-height="14px" x="4.96875" y="25">Management</text></g></g></g></svg>